<?xml version="1.0" encoding="utf-8"?>
<svg viewBox="0 0 500 500" xmlns="http://www.w3.org/2000/svg">
  <path d="M 121.643 223.854 L 121.643 207.054 L 124.403 207.054 L 124.403 223.854 Z M 123.539 216.654 L 123.539 214.134 L 132.083 214.134 L 132.083 216.654 Z M 123.539 209.574 L 123.539 207.054 L 132.491 207.054 L 132.491 209.574 Z" style="fill: rgb(51, 51, 51);"/>
  <path d="M 134.861 223.854 L 134.861 212.334 L 137.501 212.334 L 137.501 223.854 Z M 137.501 217.446 L 136.589 216.99 Q 136.589 214.806 137.561 213.45 Q 138.533 212.094 140.501 212.094 Q 141.365 212.094 142.061 212.406 Q 142.757 212.718 143.357 213.414 L 141.629 215.19 Q 141.317 214.854 140.933 214.71 Q 140.549 214.566 140.045 214.566 Q 138.941 214.566 138.221 215.262 Q 137.501 215.958 137.501 217.446 Z" style="fill: rgb(51, 51, 51);"/>
  <path d="M 149.123 224.094 Q 147.563 224.094 146.303 223.302 Q 145.043 222.51 144.311 221.154 Q 143.579 219.798 143.579 218.118 Q 143.579 216.414 144.311 215.058 Q 145.043 213.702 146.303 212.898 Q 147.563 212.094 149.123 212.094 Q 150.443 212.094 151.463 212.658 Q 152.483 213.222 153.083 214.206 Q 153.683 215.19 153.683 216.438 L 153.683 219.75 Q 153.683 220.998 153.095 221.982 Q 152.507 222.966 151.475 223.53 Q 150.443 224.094 149.123 224.094 Z M 149.555 221.598 Q 151.019 221.598 151.919 220.614 Q 152.819 219.63 152.819 218.094 Q 152.819 217.062 152.411 216.27 Q 152.003 215.478 151.271 215.034 Q 150.539 214.59 149.555 214.59 Q 148.595 214.59 147.863 215.034 Q 147.131 215.478 146.711 216.27 Q 146.291 217.062 146.291 218.094 Q 146.291 219.126 146.711 219.918 Q 147.131 220.71 147.863 221.154 Q 148.595 221.598 149.555 221.598 Z M 152.651 223.854 L 152.651 220.758 L 153.107 217.95 L 152.651 215.166 L 152.651 212.334 L 155.291 212.334 L 155.291 223.854 Z" style="fill: rgb(51, 51, 51);"/>
  <path d="M 163.013 228.894 Q 161.189 228.894 159.821 228.234 Q 158.453 227.574 157.613 226.374 L 159.341 224.646 Q 160.037 225.51 160.925 225.942 Q 161.813 226.374 163.061 226.374 Q 164.621 226.374 165.533 225.57 Q 166.445 224.766 166.445 223.374 L 166.445 220.542 L 166.901 217.998 L 166.445 215.43 L 166.445 212.334 L 169.085 212.334 L 169.085 223.374 Q 169.085 225.03 168.317 226.266 Q 167.549 227.502 166.181 228.198 Q 164.813 228.894 163.013 228.894 Z M 162.893 223.614 Q 161.357 223.614 160.121 222.858 Q 158.885 222.102 158.177 220.782 Q 157.469 219.462 157.469 217.83 Q 157.469 216.198 158.177 214.902 Q 158.885 213.606 160.121 212.85 Q 161.357 212.094 162.893 212.094 Q 164.261 212.094 165.293 212.646 Q 166.325 213.198 166.901 214.17 Q 167.477 215.142 167.477 216.438 L 167.477 219.27 Q 167.477 220.542 166.889 221.526 Q 166.301 222.51 165.269 223.062 Q 164.237 223.614 162.893 223.614 Z M 163.421 221.118 Q 164.381 221.118 165.101 220.71 Q 165.821 220.302 166.217 219.57 Q 166.613 218.838 166.613 217.854 Q 166.613 216.87 166.217 216.138 Q 165.821 215.406 165.101 214.998 Q 164.381 214.59 163.421 214.59 Q 162.461 214.59 161.729 214.998 Q 160.997 215.406 160.589 216.138 Q 160.181 216.87 160.181 217.854 Q 160.181 218.814 160.589 219.558 Q 160.997 220.302 161.729 220.71 Q 162.461 221.118 163.421 221.118 Z" style="fill: rgb(51, 51, 51);"/>
  <path d="M 172.017 223.854 L 172.017 212.334 L 174.657 212.334 L 174.657 223.854 Z M 174.657 217.446 L 173.745 216.99 Q 173.745 214.806 174.717 213.45 Q 175.689 212.094 177.657 212.094 Q 178.521 212.094 179.217 212.406 Q 179.913 212.718 180.513 213.414 L 178.785 215.19 Q 178.473 214.854 178.089 214.71 Q 177.705 214.566 177.201 214.566 Q 176.097 214.566 175.377 215.262 Q 174.657 215.958 174.657 217.446 Z" style="fill: rgb(51, 51, 51);"/>
  <path d="M 186.271 224.094 Q 184.711 224.094 183.451 223.302 Q 182.191 222.51 181.459 221.154 Q 180.727 219.798 180.727 218.118 Q 180.727 216.414 181.459 215.058 Q 182.191 213.702 183.451 212.898 Q 184.711 212.094 186.271 212.094 Q 187.591 212.094 188.611 212.658 Q 189.631 213.222 190.231 214.206 Q 190.831 215.19 190.831 216.438 L 190.831 219.75 Q 190.831 220.998 190.243 221.982 Q 189.655 222.966 188.623 223.53 Q 187.591 224.094 186.271 224.094 Z M 186.703 221.598 Q 188.167 221.598 189.067 220.614 Q 189.967 219.63 189.967 218.094 Q 189.967 217.062 189.559 216.27 Q 189.151 215.478 188.419 215.034 Q 187.687 214.59 186.703 214.59 Q 185.743 214.59 185.011 215.034 Q 184.279 215.478 183.859 216.27 Q 183.439 217.062 183.439 218.094 Q 183.439 219.126 183.859 219.918 Q 184.279 220.71 185.011 221.154 Q 185.743 221.598 186.703 221.598 Z M 189.799 223.854 L 189.799 220.758 L 190.255 217.95 L 189.799 215.166 L 189.799 212.334 L 192.439 212.334 L 192.439 223.854 Z" style="fill: rgb(51, 51, 51);"/>
  <path d="M 203.265 223.854 L 203.265 217.206 Q 203.265 216.054 202.533 215.31 Q 201.801 214.566 200.649 214.566 Q 199.881 214.566 199.281 214.902 Q 198.681 215.238 198.345 215.838 Q 198.009 216.438 198.009 217.206 L 196.977 216.63 Q 196.977 215.31 197.553 214.29 Q 198.129 213.27 199.149 212.682 Q 200.169 212.094 201.441 212.094 Q 202.737 212.094 203.745 212.754 Q 204.753 213.414 205.329 214.458 Q 205.905 215.502 205.905 216.63 L 205.905 223.854 Z M 195.369 223.854 L 195.369 212.334 L 198.009 212.334 L 198.009 223.854 Z" style="fill: rgb(51, 51, 51);"/>
  <path d="M 213.892 224.094 Q 212.188 224.094 210.808 223.302 Q 209.428 222.51 208.636 221.142 Q 207.844 219.774 207.844 218.094 Q 207.844 216.39 208.636 215.034 Q 209.428 213.678 210.808 212.886 Q 212.188 212.094 213.892 212.094 Q 215.236 212.094 216.4 212.61 Q 217.564 213.126 218.38 214.086 L 216.652 215.838 Q 216.148 215.238 215.44 214.938 Q 214.732 214.638 213.892 214.638 Q 212.908 214.638 212.152 215.082 Q 211.396 215.526 210.976 216.294 Q 210.556 217.062 210.556 218.094 Q 210.556 219.102 210.976 219.882 Q 211.396 220.662 212.152 221.106 Q 212.908 221.55 213.892 221.55 Q 214.732 221.55 215.44 221.25 Q 216.148 220.95 216.652 220.35 L 218.38 222.102 Q 217.564 223.062 216.4 223.578 Q 215.236 224.094 213.892 224.094 Z" style="fill: rgb(51, 51, 51);"/>
  <path d="M 225.393 224.094 Q 223.665 224.094 222.285 223.314 Q 220.905 222.534 220.101 221.166 Q 219.297 219.798 219.297 218.094 Q 219.297 216.39 220.089 215.034 Q 220.881 213.678 222.237 212.886 Q 223.593 212.094 225.249 212.094 Q 226.857 212.094 228.093 212.838 Q 229.329 213.582 230.037 214.878 Q 230.745 216.174 230.745 217.83 Q 230.745 218.118 230.709 218.418 Q 230.673 218.718 230.601 219.078 L 221.145 219.078 L 221.145 216.918 L 229.233 216.918 L 228.249 217.782 Q 228.201 216.726 227.841 216.006 Q 227.481 215.286 226.821 214.902 Q 226.161 214.518 225.201 214.518 Q 224.193 214.518 223.449 214.95 Q 222.705 215.382 222.297 216.162 Q 221.889 216.942 221.889 218.022 Q 221.889 219.102 222.321 219.918 Q 222.753 220.734 223.545 221.178 Q 224.337 221.622 225.369 221.622 Q 226.257 221.622 227.013 221.31 Q 227.769 220.998 228.297 220.398 L 229.977 222.102 Q 229.137 223.086 227.937 223.59 Q 226.737 224.094 225.393 224.094 Z" style="fill: rgb(51, 51, 51);"/>
  <path d="M 236.621 224.094 Q 235.661 224.094 234.773 223.842 Q 233.885 223.59 233.141 223.122 Q 232.397 222.654 231.845 221.982 L 233.525 220.302 Q 234.125 220.998 234.905 221.346 Q 235.685 221.694 236.669 221.694 Q 237.557 221.694 238.013 221.43 Q 238.469 221.166 238.469 220.662 Q 238.469 220.134 238.037 219.846 Q 237.605 219.558 236.921 219.354 Q 236.237 219.15 235.481 218.934 Q 234.725 218.718 234.041 218.346 Q 233.357 217.974 232.925 217.326 Q 232.493 216.678 232.493 215.646 Q 232.493 214.542 233.009 213.75 Q 233.525 212.958 234.473 212.526 Q 235.421 212.094 236.741 212.094 Q 238.133 212.094 239.201 212.586 Q 240.269 213.078 240.989 214.062 L 239.309 215.742 Q 238.805 215.118 238.157 214.806 Q 237.509 214.494 236.669 214.494 Q 235.877 214.494 235.445 214.734 Q 235.013 214.974 235.013 215.43 Q 235.013 215.91 235.445 216.174 Q 235.877 216.438 236.561 216.63 Q 237.245 216.822 238.001 217.05 Q 238.757 217.278 239.441 217.674 Q 240.125 218.07 240.557 218.73 Q 240.989 219.39 240.989 220.446 Q 240.989 222.126 239.813 223.11 Q 238.637 224.094 236.621 224.094 Z" style="fill: rgb(51, 51, 51);"/>
  <path d="M 253.334 224.094 Q 251.75 224.094 250.502 223.326 Q 249.254 222.558 248.534 221.25 Q 247.814 219.942 247.814 218.286 Q 247.814 216.63 248.534 215.31 Q 249.254 213.99 250.502 213.222 Q 251.75 212.454 253.334 212.454 Q 254.558 212.454 255.602 212.934 Q 256.646 213.414 257.366 214.314 Q 258.086 215.214 258.278 216.438 L 258.278 220.086 Q 258.062 221.286 257.366 222.186 Q 256.67 223.086 255.626 223.59 Q 254.582 224.094 253.334 224.094 Z M 253.55 222.942 Q 254.822 222.942 255.782 222.342 Q 256.742 221.742 257.282 220.698 Q 257.822 219.654 257.822 218.286 Q 257.822 216.894 257.27 215.85 Q 256.718 214.806 255.746 214.206 Q 254.774 213.606 253.478 213.606 Q 252.206 213.606 251.21 214.206 Q 250.214 214.806 249.638 215.85 Q 249.062 216.894 249.062 218.262 Q 249.062 219.63 249.638 220.686 Q 250.214 221.742 251.222 222.342 Q 252.23 222.942 253.55 222.942 Z M 258.998 223.854 L 257.774 223.854 L 257.774 220.854 L 258.062 218.118 L 257.774 215.406 L 257.774 207.006 L 258.998 207.006 Z" style="fill: rgb(51, 51, 51);"/>
  <path d="M 267.732 224.094 Q 266.076 224.094 264.744 223.326 Q 263.412 222.558 262.644 221.238 Q 261.876 219.918 261.876 218.262 Q 261.876 216.606 262.62 215.298 Q 263.364 213.99 264.672 213.222 Q 265.98 212.454 267.588 212.454 Q 269.124 212.454 270.288 213.138 Q 271.452 213.822 272.112 215.022 Q 272.772 216.222 272.772 217.782 Q 272.772 217.926 272.748 218.154 Q 272.724 218.382 272.676 218.718 L 262.74 218.718 L 262.74 217.662 L 271.98 217.662 L 271.572 217.998 Q 271.62 216.678 271.14 215.682 Q 270.66 214.686 269.748 214.134 Q 268.836 213.582 267.564 213.582 Q 266.244 213.582 265.236 214.17 Q 264.228 214.758 263.664 215.79 Q 263.1 216.822 263.1 218.19 Q 263.1 219.63 263.688 220.698 Q 264.276 221.766 265.332 222.354 Q 266.388 222.942 267.804 222.942 Q 268.884 222.942 269.808 222.546 Q 270.732 222.15 271.356 221.358 L 272.172 222.15 Q 271.404 223.062 270.24 223.578 Q 269.076 224.094 267.732 224.094 Z" style="fill: rgb(51, 51, 51);"/>
  <path d="M 279.333 223.854 L 286.245 207.054 L 288.165 207.054 L 295.029 223.854 L 292.053 223.854 L 286.677 210.246 L 287.685 210.246 L 282.261 223.854 Z M 282.741 220.614 L 282.741 218.214 L 291.645 218.214 L 291.645 220.614 Z" style="fill: rgb(51, 51, 51);"/>
  <path d="M 297.064 223.854 L 297.064 212.334 L 299.704 212.334 L 299.704 223.854 Z M 304.72 223.854 L 304.72 216.99 Q 304.72 215.838 304 215.202 Q 303.28 214.566 302.224 214.566 Q 301.504 214.566 300.94 214.854 Q 300.376 215.142 300.04 215.682 Q 299.704 216.222 299.704 216.99 L 298.672 216.414 Q 298.672 215.094 299.248 214.134 Q 299.824 213.174 300.808 212.634 Q 301.792 212.094 303.016 212.094 Q 304.24 212.094 305.224 212.622 Q 306.208 213.15 306.784 214.11 Q 307.36 215.07 307.36 216.414 L 307.36 223.854 Z M 312.376 223.854 L 312.376 216.99 Q 312.376 215.838 311.656 215.202 Q 310.936 214.566 309.88 214.566 Q 309.184 214.566 308.608 214.854 Q 308.032 215.142 307.696 215.682 Q 307.36 216.222 307.36 216.99 L 305.872 216.414 Q 305.992 215.094 306.64 214.134 Q 307.288 213.174 308.308 212.634 Q 309.328 212.094 310.552 212.094 Q 311.8 212.094 312.808 212.622 Q 313.816 213.15 314.416 214.11 Q 315.016 215.07 315.016 216.414 L 315.016 223.854 Z" style="fill: rgb(51, 51, 51);"/>
  <path d="M 323.08 224.094 Q 321.352 224.094 319.972 223.314 Q 318.592 222.534 317.788 221.166 Q 316.984 219.798 316.984 218.094 Q 316.984 216.39 317.776 215.034 Q 318.568 213.678 319.924 212.886 Q 321.28 212.094 322.936 212.094 Q 324.544 212.094 325.78 212.838 Q 327.016 213.582 327.724 214.878 Q 328.432 216.174 328.432 217.83 Q 328.432 218.118 328.396 218.418 Q 328.36 218.718 328.288 219.078 L 318.832 219.078 L 318.832 216.918 L 326.92 216.918 L 325.936 217.782 Q 325.888 216.726 325.528 216.006 Q 325.168 215.286 324.508 214.902 Q 323.848 214.518 322.888 214.518 Q 321.88 214.518 321.136 214.95 Q 320.392 215.382 319.984 216.162 Q 319.576 216.942 319.576 218.022 Q 319.576 219.102 320.008 219.918 Q 320.44 220.734 321.232 221.178 Q 322.024 221.622 323.056 221.622 Q 323.944 221.622 324.7 221.31 Q 325.456 220.998 325.984 220.398 L 327.664 222.102 Q 326.824 223.086 325.624 223.59 Q 324.424 224.094 323.08 224.094 Z" style="fill: rgb(51, 51, 51);"/>
  <path d="M 330.541 223.854 L 330.541 212.334 L 333.181 212.334 L 333.181 223.854 Z M 333.181 217.446 L 332.269 216.99 Q 332.269 214.806 333.241 213.45 Q 334.213 212.094 336.181 212.094 Q 337.045 212.094 337.741 212.406 Q 338.437 212.718 339.037 213.414 L 337.309 215.19 Q 336.997 214.854 336.613 214.71 Q 336.229 214.566 335.725 214.566 Q 334.621 214.566 333.901 215.262 Q 333.181 215.958 333.181 217.446 Z" style="fill: rgb(51, 51, 51);"/>
  <path d="M 340.338 223.854 L 340.338 212.334 L 342.978 212.334 L 342.978 223.854 Z M 341.658 210.222 Q 340.986 210.222 340.542 209.766 Q 340.098 209.31 340.098 208.638 Q 340.098 207.966 340.542 207.51 Q 340.986 207.054 341.658 207.054 Q 342.354 207.054 342.786 207.51 Q 343.218 207.966 343.218 208.638 Q 343.218 209.31 342.786 209.766 Q 342.354 210.222 341.658 210.222 Z" style="fill: rgb(51, 51, 51);"/>
  <path d="M 351.235 224.094 Q 349.531 224.094 348.151 223.302 Q 346.771 222.51 345.979 221.142 Q 345.187 219.774 345.187 218.094 Q 345.187 216.39 345.979 215.034 Q 346.771 213.678 348.151 212.886 Q 349.531 212.094 351.235 212.094 Q 352.579 212.094 353.743 212.61 Q 354.907 213.126 355.723 214.086 L 353.995 215.838 Q 353.491 215.238 352.783 214.938 Q 352.075 214.638 351.235 214.638 Q 350.251 214.638 349.495 215.082 Q 348.739 215.526 348.319 216.294 Q 347.899 217.062 347.899 218.094 Q 347.899 219.102 348.319 219.882 Q 348.739 220.662 349.495 221.106 Q 350.251 221.55 351.235 221.55 Q 352.075 221.55 352.783 221.25 Q 353.491 220.95 353.995 220.35 L 355.723 222.102 Q 354.907 223.062 353.743 223.578 Q 352.579 224.094 351.235 224.094 Z" style="fill: rgb(51, 51, 51);"/>
  <path d="M 362.201 224.094 Q 360.641 224.094 359.381 223.302 Q 358.121 222.51 357.389 221.154 Q 356.657 219.798 356.657 218.118 Q 356.657 216.414 357.389 215.058 Q 358.121 213.702 359.381 212.898 Q 360.641 212.094 362.201 212.094 Q 363.521 212.094 364.541 212.658 Q 365.561 213.222 366.161 214.206 Q 366.761 215.19 366.761 216.438 L 366.761 219.75 Q 366.761 220.998 366.173 221.982 Q 365.585 222.966 364.553 223.53 Q 363.521 224.094 362.201 224.094 Z M 362.633 221.598 Q 364.097 221.598 364.997 220.614 Q 365.897 219.63 365.897 218.094 Q 365.897 217.062 365.489 216.27 Q 365.081 215.478 364.349 215.034 Q 363.617 214.59 362.633 214.59 Q 361.673 214.59 360.941 215.034 Q 360.209 215.478 359.789 216.27 Q 359.369 217.062 359.369 218.094 Q 359.369 219.126 359.789 219.918 Q 360.209 220.71 360.941 221.154 Q 361.673 221.598 362.633 221.598 Z M 365.729 223.854 L 365.729 220.758 L 366.185 217.95 L 365.729 215.166 L 365.729 212.334 L 368.369 212.334 L 368.369 223.854 Z" style="fill: rgb(51, 51, 51);"/>
</svg>